<?xml version="1.0" encoding="UTF-8"?>
<svg id="svg" xmlns="http://www.w3.org/2000/svg" viewBox="0 0 1024 1024">
  <defs>
    <style>
      .cls-1 {
        font-family: Optima-Bold, Optima;
        font-size: 72px;
        font-weight: 700;
        isolation: isolate;
      }

      .cls-2 {
        fill: #fff;
      }

      .cls-3, .cls-4 {
        fill: #6ea8fe;
      }

      .cls-4, .cls-5 {
        stroke-width: 0px;
      }

      .cls-5 {
        fill: #26262a;
      }
    </style>
  </defs>
  <path class="cls-5" d="m0,0h1024v1024H0V0Z"/>
  <path class="cls-4" d="m552,340c.85.24,1.69.47,2.56.72,36.81,10.52,68.11,34.84,87.27,68.11,13.14,23.67,19.4,48.06,19.42,75.05v2.38c-.05,39.13-14.27,74.21-41.25,102.75-.7.75-1.39,1.5-2.11,2.27-25.02,26.07-61.14,40.87-97,41.97-37.98.63-75.03-10.49-102.89-37.24-1.29-1.07-2.58-2.13-3.88-3.19-25.98-22.78-42.86-60.56-45.12-94.81-1.63-38.28,7.39-75.84,32-106,.46-.57.92-1.13,1.39-1.72,23.74-29.09,57.39-49.77,95.15-54.1,18.18-1.39,36.87-1.26,54.45,3.81h.01Zm-70,12c-.77.21-1.54.42-2.33.63-22.86,6.45-41.71,19.03-58.67,35.37-.73.67-1.46,1.33-2.21,2.02-16.63,15.62-28.18,40.24-33.79,61.98-.3,1.14-.6,2.29-.91,3.47-2.16,9.89-2.38,19.7-2.4,29.78,0,.68,0,1.36-.01,2.06-.1,35.29,13.98,66.69,37.32,92.69.72.8,1.44,1.61,2.18,2.43,23.09,24.4,56.64,37.04,89.72,38.77,34.05.41,68.05-10.63,93.04-34.26,1.37-1.29,3.08-2.73,5.12-4.32,22.45-20.06,37.9-53.72,39.94-83.62,1.22-34.89-4.45-67.51-26-96-.67-.89-1.35-1.79-2.04-2.71-21.62-27.47-51.94-45.56-86.46-51.61-17.71-2.1-35.29-1.38-52.5,3.31h0Z"/>
  <path class="cls-4" d="m599,442c-.64.39-1.29.78-1.95,1.18-15.24,9.43-29.53,20.96-42.03,33.8-1.82,1.82-3.68,3.49-5.64,5.15-2.7,2.3-5.22,4.71-7.68,7.26-23.66,24.44-57.54,44.31-92.41,45.77-.75-.05-1.51-.11-2.28-.16,2.69-1.79,5.2-3.07,8.13-4.4,17.43-8.04,33.24-17.11,47.87-29.6,1.12-.95,2.24-1.89,3.36-2.84,5.29-4.49,10.53-9.03,15.64-13.72,19.41-17.54,41.91-31.15,66.25-40.75.75-.29,1.5-.59,2.25-.9,3.41-1.28,6.24-1.54,8.5-.79h-.01Z"/>
  <path class="cls-4" d="m561,424c-1.14.61-2.27,1.21-3.45,1.84-14.95,8.07-28.05,17.51-41.16,28.31-2.79,2.3-5.59,4.58-8.4,6.86-.99.82-1.97,1.63-2.99,2.48-14.39,11.71-30.3,18.35-48.01,23.52-1.15.34-2.3.68-3.48,1.03-9.95,2.59-20.29,3.17-30.52,3.97,2.47-1.65,4.16-2.51,6.89-3.45.77-.27,1.53-.54,2.32-.81.82-.29,1.64-.57,2.48-.87,19.44-7.01,36.4-17.17,52.69-29.81,14.78-11.45,53.21-39.87,73.62-33.06h0Z"/>
  <path class="cls-4" d="m575,502c1.12,3.36.9,4.08-.15,7.32-.28.85-.56,1.72-.84,2.59-.31.91-.62,1.83-.94,2.77s-.64,1.88-.97,2.85c-7.08,20.24-17.8,34.4-33.04,49.29-9.23,9.12-16.29,19.13-23.05,30.17h-1c.57-5.86,1.74-11.11,3.62-16.69.27-.78.53-1.57.81-2.38,5.94-16.94,16.06-29.69,28.69-42.08,9.76-9.6,20.69-21.48,26.88-33.85h-.01Z"/>
  <path class="cls-4" d="m530,370l1,2c-8.64,23.96-21.87,38.93-43,52.69-5.29,3.47-10.2,7.19-15,11.31-1.21,1-2.42,2-3.62,3-.79.66-1.58,1.33-2.38,2,7.08-19.13,24.68-35.92,40.57-48.09,8.56-6.73,15.96-14.13,22.43-22.91Z"/>
  <text class="cls-1" transform="translate(313.93 757.77)"><tspan class="cls-2" x="0" y="0">ROOM</tspan><tspan class="cls-3" x="227.95" y="0">EASE</tspan></text>
</svg>